<svg xmlns="http://www.w3.org/2000/svg" width="1172.477" height="111.824" viewBox="0 0 1172.477 111.824">
  <g id="Group_398" data-name="Group 398" transform="translate(-75.365 -354.722)">
    <path id="Path_624" data-name="Path 624" d="M-756.635-1354h246.419s-.054-33.277,0-44.119,5.411-10.668,5.576,0,0,44.119,0,44.119h52.593s-.09,30.335,0,45.127,6.375,14.324,6.135,0,0-45.127,0-45.127H124.042s.261-32.518,0-44.119,6.527-11.489,6.457,0,0,44.119,0,44.119H415.842" transform="translate(832 1763)" fill="none" stroke="#707070" stroke-width="3"/>
    <text id="Jun_2017" data-name="Jun 2017" transform="translate(220.5 389.5)" fill="none" stroke="#e85a4f" stroke-width="1" font-size="18" font-family="CourierNewPSMT, Courier New"><tspan x="0" y="0">Jun 2017</tspan></text>
    <text id="Sept_2017" data-name="Sept 2017" transform="translate(393.5 445.5)" fill="none" stroke="#e85a4f" stroke-width="1" font-size="18" font-family="CourierNewPSMT, Courier New"><tspan x="0" y="0">Sept 2017</tspan></text>
    <text id="Aug_2019" data-name="Aug 2019" transform="translate(968.5 389.5)" fill="none" stroke="#e85a4f" stroke-width="1" font-size="18" font-family="CourierNewPSMT, Courier New"><tspan x="0" y="0">Aug 2019</tspan></text>
  </g>
</svg>
